<svg version="1.1" viewBox="0.0 0.0 480.0 216.0" fill="none" stroke="none" stroke-linecap="square" stroke-miterlimit="10" xmlns:xlink="http://www.w3.org/1999/xlink" xmlns="http://www.w3.org/2000/svg"><clipPath id="p.0"><path d="m0 0l480.0 0l0 216.0l-480.0 0l0 -216.0z" clip-rule="nonzero"/></clipPath><g clip-path="url(#p.0)"><path fill="#000000" fill-opacity="0.0" d="m0 0l480.0 0l0 216.0l-480.0 0z" fill-rule="evenodd"/><path fill="#000000" d="m144.1713 9.410355c3.1652985 0 6.2874146 0.23883343 9.366379 0.7164993c1.812851 0.25475502 3.357132 0.6687317 4.632843 1.241931c1.2852936 0.5731993 2.4890594 1.3056202 3.6112976 2.1972637c1.1222382 0.8916426 1.9711151 2.0486574 2.5466156 3.4710398c0.57551575 1.411768 0.863266 3.083599 0.863266 5.0154915c0 1.9212799 -0.4028473 3.6143398 -1.2085571 5.0791817c-2.1581573 3.8531723 -6.719055 5.7797565 -13.6826935 5.7797565l-14.373291 0l0 -16.622774c0 -2.6430845 0.580307 -4.4475994 1.7409058 -5.4135475c1.1702118 -0.97655964 3.3379517 -1.4648399 6.503235 -1.4648418zm1.5107117 29.042091c4.1724243 0 7.9420013 0.2865982 11.308716 0.85979843c1.8703918 0.3184433 3.4674225 0.80672455 4.791092 1.4648399c1.3236694 0.6475067 2.537033 1.4648438 3.640091 2.4520187c1.1126404 0.9871788 1.9471283 2.2397194 2.5034485 3.7576408c0.56591797 1.5072975 0.84887695 3.2640495 0.84887695 5.2702484c0 4.012394 -1.1366272 7.069454 -3.4098816 9.171185c-2.848755 2.6430817 -7.999542 3.9646301 -15.452362 3.9646301l-7.1650696 0c-2.6185608 0 -4.412216 -0.6209717 -5.3809967 -1.8628998c-0.9591675 -1.2419319 -1.4387665 -3.4391937 -1.4387665 -6.5917892l0 -18.485672zm-14.545944 -34.726315c-3.9710007 0 -6.675888 0.14329982 -8.114655 0.42989945c-1.1222382 0.22291088 -1.9087677 0.6315799 -2.359581 1.2260094c-0.44122314 0.5838132 -0.6618271 1.1782427 -0.6618271 1.7832861c0 0.6050434 0.019172668 1.0137124 0.057548523 1.2260089c0.047950745 0.20168114 0.09111786 0.37682533 0.12948608 0.5254326c0.047958374 0.1379919 0.13428497 0.26536942 0.2589798 0.38213348c0.13427734 0.10614681 0.24459076 0.19106579 0.33091736 0.25475502c0.0863266 0.06368828 0.24459076 0.122071266 0.47479248 0.1751442c0.23020172 0.04246044 0.5179596 0.09022713 0.86325836 0.1432991c0.3453064 0.04246044 0.71938324 0.09553337 1.1222382 0.1592226c2.1581573 0.3184433 3.2372284 1.6240644 3.2372284 3.9168606l0 46.57243c0 1.751442 -0.5611191 2.8819199 -1.6833572 3.39143c-0.31652832 0.15921783 -0.9351959 0.3184433 -1.8560104 0.47766876c-1.9567261 0.2865982 -2.9350815 0.987175 -2.9350815 2.1017303c0.08631897 1.97435 1.2661133 3.2958908 3.5393677 3.9646225c1.0934601 0.22291565 3.6256943 0.33436584 7.596695 0.33436584l19.250717 0.04776764c7.826889 0 14.272568 -1.2578506 19.337036 -3.7735596c2.7048798 -1.3056183 4.8102875 -3.1738281 6.3161926 -5.6046143c1.5155029 -2.4414062 2.2732544 -5.36578 2.2732544 -8.773132c0 -8.279541 -5.1939545 -14.234444 -15.581863 -17.864708c3.1652985 -1.496685 5.711914 -3.2003593 7.639862 -5.111025c2.3595734 -2.2927952 3.5393677 -5.4135475 3.5393677 -9.362251c0 -11.081851 -8.690155 -16.622776 -26.07048 -16.622776z" fill-rule="evenodd"/><path fill="#000000" d="m203.06007 29.329025c4.3354797 0 7.884445 1.9425087 10.646881 5.827526c2.762436 3.8850136 4.1436462 8.502453 4.1436462 13.85231c0 5.349861 -1.2037659 9.632931 -3.6112976 12.849216c-2.3979492 3.2162857 -5.740692 4.8244247 -10.0282135 4.8244247c-4.2875366 0 -7.798126 -1.92659 -10.531784 -5.7797585c-2.7336578 -3.8531723 -4.1004944 -8.4387665 -4.1004944 -13.756779c0 -5.318016 1.1654053 -9.617008 3.4962158 -12.89698c2.3307953 -3.279974 5.659149 -4.91996 9.985046 -4.91996zm1.3668213 -5.063259c-4.4026184 0 -8.397598 0.9659481 -11.98494 2.8978405c-3.5777283 1.9212799 -6.4169006 4.697048 -8.517502 8.327311c-2.1006012 3.6302605 -3.1508942 7.770031 -3.1508942 12.419312c0 6.9739265 1.9854889 12.732452 5.956497 17.275585c3.970993 4.5325165 9.208115 6.7987823 15.7113495 6.7987823c4.4601746 0 8.488724 -0.99248505 12.085648 -2.9774551c3.5969238 -1.9955826 6.45047 -4.8456573 8.560669 -8.550217c2.1197815 -3.7151833 3.1796722 -7.9611015 3.1796722 -12.737759c0 -6.9102364 -2.057434 -12.546696 -6.1723175 -16.909376c-4.114868 -4.3626823 -9.337601 -6.5440235 -15.668182 -6.5440235z" fill-rule="evenodd"/><path fill="#000000" d="m289.32858 23.979166c-5.98526 0 -11.423798 2.6430855 -16.315613 7.9292545c-1.2373352 -2.1017303 -2.9734497 -3.9380894 -5.2083435 -5.509081c-2.2252808 -1.581604 -4.5177307 -2.372406 -6.8773193 -2.372406c-6.79097 0 -12.171967 2.4520168 -16.14296 7.3560543c0 -2.8023071 -0.35969543 -4.606821 -1.0790863 -5.4135475c-0.7193756 -0.81733704 -2.3164062 -1.2260094 -4.791092 -1.2260094c-0.7481537 0 -1.5538635 0.09553337 -2.4171295 0.2866001c-3.798355 0.7324219 -5.697525 2.149496 -5.697525 4.2512264c0 1.3056202 1.0359192 2.0221195 3.1077423 2.149498c0.7481537 0.06368828 1.4435577 0.33436584 2.0862122 0.8120308c0.65223694 0.47766495 0.97836304 1.1941643 0.97836304 2.149498l0 27.274727c0 1.0190201 -0.28775024 1.7620544 -0.863266 2.229107c-0.5755005 0.45643616 -1.2181549 0.7005768 -1.927948 0.7324219c-0.7001953 0.031845093 -1.3380585 0.20698547 -1.913559 0.5254288c-0.5755005 0.3184433 -0.863266 0.8863373 -0.863266 1.7036743c0 0.80672455 0.20143127 1.4966888 0.6042938 2.069893c0.8920288 1.2737732 3.2228394 1.9106598 6.992401 1.9106598l3.7120209 -0.04776764c2.3020325 0 4.1148834 -0.15921783 5.438553 -0.47766113c1.7265167 -0.41397858 2.5897827 -1.4966888 2.5897827 -3.2481308c0 -1.5285339 -0.93040466 -2.345871 -2.791214 -2.4520187c-1.8512115 -0.11676788 -2.776825 -1.0986328 -2.776825 -2.9456062l0 -18.103542c0 -4.298992 1.0982666 -7.6108093 3.2947845 -9.9354515c2.2061005 -2.3246403 5.3809814 -3.4869614 9.524628 -3.4869614c3.3379517 0 5.6975403 1.639988 7.078766 4.91996c0.94958496 2.260952 1.4243774 6.3848 1.4243774 12.371548l0 14.2344475c0 1.0190201 -0.28778076 1.7620544 -0.86328125 2.229107c-0.5755005 0.45643616 -1.2181396 0.7005768 -1.927948 0.7324219c-0.7001953 0.031845093 -1.3380432 0.20698547 -1.9135437 0.5254288c-0.575531 0.3184433 -0.86328125 0.8863373 -0.86328125 1.7036743c0 0.80672455 0.20144653 1.4966888 0.60427856 2.069893c0.8920593 1.2737732 3.2228394 1.9106598 6.9924316 1.9106598l3.7120056 -0.04776764c2.3020325 0 4.1148987 -0.15921783 5.438568 -0.47766113c1.7265015 -0.41397858 2.5897522 -1.4966888 2.5897522 -3.2481308c0 -1.5285339 -0.9303894 -2.345871 -2.7911987 -2.4520187c-1.8512268 -0.11676788 -2.776825 -1.0986328 -2.776825 -2.9456062l0 -21.35167c0 -2.1335754 0.60427856 -3.985855 1.8128662 -5.5568466c1.2085571 -1.581604 2.7528381 -2.7439232 4.6328125 -3.4869614c1.8895874 -0.75365067 4.1148987 -1.1304779 6.6759033 -1.1304779c2.5610046 0 4.5321045 0.97125435 5.91333 2.913765c1.4675293 2.006195 2.2013245 6.639557 2.2013245 13.900078l0 14.712112c0 1.0190201 -0.28778076 1.7620544 -0.86328125 2.229107c-0.5755005 0.45643616 -1.2181396 0.7005768 -1.927948 0.7324219c-0.7001953 0.031845093 -1.3380432 0.20698547 -1.9135437 0.5254288c-0.575531 0.3184433 -0.86328125 0.8863373 -0.86328125 1.7036743c0 0.80672455 0.20144653 1.4966888 0.60427856 2.069893c0.8920593 1.2737732 3.2228394 1.9106598 6.9924316 1.9106598l3.7120056 -0.04776764c2.3020325 0 4.1148987 -0.15921783 5.4385376 -0.47766113c1.726532 -0.41397858 2.5897827 -1.4966888 2.5897827 -3.2481308c0 -1.5285339 -0.9303894 -2.345871 -2.7911987 -2.4520187c-1.8511963 -0.11676788 -2.776825 -1.0986328 -2.776825 -2.9456062l0 -13.374649c0 -6.082279 -0.51794434 -10.906704 -1.5538635 -14.473278c-1.8991699 -6.559944 -6.3161926 -9.839918 -13.251068 -9.839918z" fill-rule="evenodd"/><path fill="#000000" d="m337.15323 30.188824c2.6185608 0 4.9829407 1.0030975 7.0931396 3.0092964c2.1197815 2.006195 3.72641 4.5165977 4.8198853 7.5312004c1.0934448 3.0039825 1.6401978 6.130043 1.6401978 9.378174c0 4.6492805 -1.0934753 8.406921 -3.2803955 11.272915c-2.1869507 2.8659973 -5.251526 4.298996 -9.193726 4.298996c-3.9422302 0 -7.6254883 -1.4966888 -11.049744 -4.4900627l0 -26.319393c3.050171 -3.1207504 6.373749 -4.6811256 9.970642 -4.6811256zm-16.488281 -30.188488c-2.7336426 0 -4.906189 0.73242116 -6.5176086 2.1972632c-0.8920288 0.7961099 -1.3380432 1.5603755 -1.3380432 2.2927964c0 0.7324214 0.10070801 1.1941652 0.30212402 1.3852315c0.08633423 0.09553337 0.17745972 0.1751442 0.27337646 0.23883295c0.10549927 0.063688755 0.26376343 0.12206936 0.47479248 0.1751442c0.22061157 0.042458534 0.40286255 0.07430315 0.5467224 0.09553337c0.14389038 0.010613918 0.37408447 0.03184414 0.6906128 0.063688755c0.31652832 0.03184414 0.5755005 0.063688755 0.776947 0.095532894c2.0718079 0.22291088 3.107727 1.7832866 3.107727 4.681126l0 55.60032c0 2.8978348 0.5611267 4.346756 1.6833496 4.346756c0.9496155 0 2.1293945 -1.0667877 3.5393982 -3.2003632c0.71936035 -1.0827103 1.1078491 -1.6559067 1.1653748 -1.7195969c4.863037 3.5984192 9.884338 5.397629 15.063904 5.397629c3.625702 0 6.954071 -1.1782455 9.985046 -3.534729c3.040619 -2.3564835 5.400177 -5.42947 7.078766 -9.218952c1.6881409 -3.789486 2.5322266 -7.8178024 2.5322266 -12.0849495c0 -6.814701 -1.6641846 -12.32909 -4.992523 -16.543165c-3.318756 -4.2246895 -7.711792 -6.337034 -13.179138 -6.337034c-5.4673157 0 -10.344727 2.0221176 -14.632263 6.0663567l0 -26.414927c0 -1.2419314 -0.48916626 -2.24503 -1.4675293 -3.0092955c-0.48919678 -0.38213277 -2.1869202 -0.57319915 -5.0932617 -0.57319915z" fill-rule="evenodd"/><path fill="#000000" d="m57.09001 83.97113c7.476074 0 14.850204 0.5029526 22.122383 1.5088501c4.2817535 0.53648376 7.9291763 1.4082642 10.942253 2.6153488c3.0357437 1.2070847 5.878914 2.749466 8.529518 4.627144c2.6506119 1.8776855 4.6555557 4.314209 6.014847 7.309555c1.3592834 2.9729996 2.0389252 6.49366 2.0389252 10.561966c0 4.045967 -0.95149994 7.611328 -2.8544998 10.696091c-5.0973206 8.114273 -15.869667 12.171417 -32.317024 12.171417l-33.948177 0l0 -35.005386c0 -5.5659866 1.3706207 -9.366058 4.111843 -11.400223c2.7638855 -2.0565033 7.8838577 -3.084755 15.359932 -3.0847626zm3.5681267 61.15883c9.854824 0 18.758152 0.6035309 26.709972 1.8106232c4.417679 0.67059326 8.189697 1.6988525 11.316055 3.0847626c3.1263657 1.3635559 5.9921875 3.0847626 8.597488 5.16362c2.6279526 2.0788727 4.598915 4.716568 5.912895 7.913101c1.3366318 3.174179 2.0049438 6.873657 2.0049438 11.09845c0 8.44957 -2.6845856 14.887344 -8.053764 19.313309c-6.72847 5.5659943 -18.894081 8.348984 -36.496834 8.348984l-16.923115 0c-6.1847534 0 -10.421188 -1.307663 -12.709328 -3.9230194c-2.2654724 -2.6153412 -3.3982162 -7.2424927 -3.3982162 -13.881439l0 -38.92839zm-34.355957 -73.12906c-9.379076 0 -15.76772 0.30177307 -19.165936 0.9053116c-2.650608 0.4694214 -4.508294 1.3300247 -5.5730734 2.5818176c-1.0421138 1.2294312 -1.5631791 2.481224 -1.5631791 3.7553635c0 1.2741394 0.04531507 2.1347427 0.13592862 2.5818176c0.11327939 0.42471313 0.21522583 0.79354095 0.30583942 1.1064911c0.11327937 0.29058838 0.31717232 0.55883026 0.61167884 0.804718c0.3171723 0.22353363 0.57769656 0.402359 0.7815895 0.53648376c0.20389283 0.13411713 0.5776967 0.25706482 1.1214112 0.36882782c0.5437143 0.089416504 1.2233574 0.19001007 2.0389292 0.30177307c0.8155718 0.089416504 1.6991076 0.2011795 2.650608 0.33529663c5.097323 0.6706009 7.645985 3.4200668 7.645985 8.248398l0 98.07542c0 3.6883087 -1.325304 6.068939 -3.975912 7.1419067c-0.7476082 0.33529663 -2.2088404 0.67059326 -4.3836985 1.0058899c-4.621573 0.60354614 -6.932359 2.0788727 -6.932359 4.4259796c0.20389293 4.157715 2.9904296 6.9407196 8.359611 8.348984c2.5826435 0.4694214 8.563502 0.7041168 17.942577 0.7041168l45.46812 0.1006012c18.48629 0 33.710297 -2.64888 45.67202 -7.9466248c6.3886414 -2.749466 11.361359 -6.68367 14.918167 -11.802582c3.5794525 -5.141281 5.369171 -11.299637 5.369171 -18.475067c0 -17.435623 -12.267555 -29.97586 -36.802666 -37.620712c7.476074 -3.151825 13.490913 -6.7395477 18.044525 -10.763153c5.5730667 -4.828331 8.359604 -11.400223 8.359604 -19.715675c0 -23.336922 -20.525215 -35.00538 -61.57566 -35.00538z" fill-rule="evenodd"/><path fill="#000000" d="m172.52739 74.81743c-3.420868 0 -6.5812073 1.2964935 -9.481018 3.8894806c-2.8771667 2.5706406 -4.315735 5.3312836 -4.315735 8.281929c0 3.2188873 1.4385681 5.901291 4.315735 8.047211c2.8998108 2.1459274 6.3206787 3.2188873 10.262604 3.2188873c3.9419403 0 7.2721863 -1.1511993 9.990753 -3.453598c2.7185822 -2.3247452 4.0778656 -5.197159 4.0778656 -8.617226c0 -3.4200668 -1.619812 -6.169525 -4.8594513 -8.24839c-3.21698 -2.078865 -6.547226 -3.1182938 -9.990753 -3.1182938zm-2.0729065 41.443146c-6.4566193 0 -11.621902 1.5423813 -15.495865 4.6271515c-2.0389252 1.6764984 -3.0583954 3.3082962 -3.0583954 4.8953857c0 1.564743 0.23786926 2.5147552 0.71362305 2.8500519c0.27186584 0.20118713 0.5210571 0.36883545 0.74760437 0.5029602c0.24920654 0.1341095 0.62301636 0.25706482 1.1214142 0.3688202c0.5210571 0.089416504 0.95150757 0.15647888 1.2913208 0.20118713c0.3398285 0.022354126 0.8835449 0.06706238 1.6311493 0.13412476c0.74760437 0.06704712 1.3592834 0.1341095 1.8350372 0.20117188c4.82547 0.4694214 7.2381897 3.755371 7.2381897 9.857834l0 54.117523c0 2.1459198 -0.6796417 3.7106476 -2.0389252 4.6941986c-1.3592834 0.9611969 -2.8771515 1.4753265 -4.553604 1.5423889c-1.6538086 0.06706238 -3.1603394 0.43588257 -4.519623 1.1064911c-1.3592987 0.67059326 -2.0389404 1.8665009 -2.0389404 3.5877075c0 1.6988525 0.47575378 3.151825 1.4272614 4.358917c2.1068878 2.6824036 7.6119995 4.0236053 16.51532 4.0236053l8.767395 -0.1006012c5.437149 0 9.718903 -0.33529663 12.845261 -1.0058899c4.0778503 -0.8717804 6.116791 -3.151825 6.116791 -6.8401337c0 -3.2188873 -2.197525 -4.9401093 -6.5925446 -5.1636353c-4.3723755 -0.24589539 -6.558548 -2.313568 -6.558548 -6.2030487l0 -70.211945c0 -2.6153488 -0.7136383 -4.392441 -2.1408844 -5.3312836c-0.74760437 -0.53647614 -1.6537933 -1.0394287 -2.718567 -1.5088501c-1.0421295 -0.4694214 -4.5536194 -0.7041321 -10.53447 -0.7041321z" fill-rule="evenodd"/><path fill="#000000" d="m239.67613 89.403c-3.0583954 0 -6.864395 5.532463 -11.417999 16.597382c-1.8350372 4.4259644 -3.21698 7.298378 -4.1458282 8.617218c-0.90618896 1.2965012 -3.7040558 2.8835907 -8.3936 4.7612686c-1.6990967 0.6706009 -3.2169647 1.6318054 -4.553604 2.8835907c-1.3139801 1.2294388 -1.9709625 2.6041641 -1.9709625 4.1241913c0 1.4976807 0.57769775 2.481224 1.7330933 2.9506454c1.1553955 0.4694214 2.9904327 0.7041321 5.5051117 0.7041321l6.2187347 -0.10058594l0 56.229904c0 8.650757 1.9483032 15.625 5.844925 20.92276c3.919281 5.2977448 9.322433 7.9466095 16.209488 7.9466095c6.9096985 0 13.638168 -1.2406006 20.18541 -3.7218323c6.5698853 -2.4812164 9.854828 -4.962448 9.854828 -7.4436646c0 -3.151825 -1.39328 -4.7277374 -4.1798096 -4.7277374c-1.2233582 0 -3.8399963 0.625885 -7.849884 1.8776855c-4.0098877 1.2294159 -7.034317 1.8441467 -9.073242 1.8441467c-7.4081116 0 -11.112167 -7.276016 -11.112167 -21.828064l0.10195923 -51.40158l24.365189 0c2.3787537 0 4.3610535 -0.53648376 5.9468994 -1.609436c1.60849 -1.0729675 2.4127197 -2.5818176 2.4127197 -4.5265656c0 -1.9447403 -0.8155823 -3.4982986 -2.4467163 -4.660675c-1.631134 -1.1847305 -3.636078 -1.777092 -6.0148315 -1.777092l-24.26326 -0.10059357c0 -1.3412018 0.033981323 -3.7330093 0.10194397 -7.1754303c0.06796265 -3.4647675 0.07928467 -6.068939 0.033981323 -7.8125076c-0.022659302 -1.7435608 -0.1585846 -4.2694855 -0.40779114 -7.5777893c-0.22654724 -3.3306503 -1.1214142 -4.9959793 -2.6845856 -4.9959793z" fill-rule="evenodd"/><path fill="#000000" d="m336.86508 125.61546c7.5893555 0 13.355011 2.4141693 17.296936 7.2424927c3.941925 4.8283234 5.980835 11.09845 6.116791 18.810364c-8.359619 0.26823425 -17.840637 0.402359 -28.443085 0.402359l-23.855469 0c0.33981323 -6.907196 3.3415833 -13.043198 9.00528 -18.408005c5.6863403 -5.364807 12.312866 -8.047211 19.879547 -8.047211zm0.7815857 -10.561966c-14.680267 0 -26.766602 4.7165604 -36.25894 14.149673c-9.469696 9.410782 -14.204559 21.66043 -14.204559 36.748947c0 15.0885315 4.7008667 27.192871 14.1026 36.31305c9.424377 9.120178 21.850525 13.680267 37.278442 13.680267c4.349701 0 9.413055 -0.76000977 15.190002 -2.2800446c5.7769775 -1.4976654 11.055542 -3.800064 15.835693 -6.907196c4.8027954 -3.1294708 7.2042236 -6.5383606 7.2042236 -10.226669c0 -1.4082489 -0.6343384 -2.592987 -1.9030151 -3.554184c-1.2460022 -0.983551 -2.3674316 -1.4753113 -3.3642273 -1.4753113c-0.9741516 0 -3.228302 1.0729523 -6.762451 3.218872c-6.660492 4.0906677 -13.524902 6.1360016 -20.59317 6.1360016c-10.67041 0 -19.505768 -3.7218323 -26.506104 -11.165497c-7.000305 -7.44368 -10.568451 -16.597382 -10.704376 -27.46112l59.027008 0c8.699432 0 13.049164 -2.7159424 13.049164 -8.147812c0 -11.199036 -3.9985962 -20.498032 -11.995697 -27.897003c-7.9744873 -7.421318 -17.772675 -11.131973 -29.394592 -11.131973z" fill-rule="evenodd"/><path fill="#000000" d="m432.6608 114.751724c-10.534485 0 -19.528412 2.5482864 -26.981842 7.6448517c-7.4307556 5.096573 -11.146149 11.500809 -11.146149 19.212723c0 5.9683533 2.0729065 11.131973 6.21875 15.4908905c4.145813 4.358902 9.209137 7.6783752 15.190002 9.95842c2.3787537 0.9388428 7.0003357 2.3135834 13.864716 4.1242065c3.6700745 1.0058899 6.7964478 1.8776703 9.379089 2.6153412c13.796753 3.956543 20.69513 9.421936 20.69513 16.396194c0 9.254288 -7.645996 13.881439 -22.937958 13.881439c-8.155701 0 -15.835693 -1.307663 -23.039886 -3.9230194c0.47573853 -2.9506378 0.71362305 -5.7112885 0.71362305 -8.281921c0 -2.592987 -1.0081482 -4.761261 -3.024414 -6.504822c-1.9936218 -1.7435608 -4.417694 -2.6153564 -7.2721863 -2.6153564c-2.8544922 0 -5.4031677 0.9611969 -7.645996 2.8835907c-2.2428284 1.9000397 -3.3642273 4.5936127 -3.3642273 8.0807495c0 3.4871216 1.3592834 6.7730713 4.0778503 9.857834c2.7185974 3.0847626 6.3206787 5.498932 10.806335 7.2424927c8.767395 3.3529968 18.350372 5.0295105 28.748901 5.0295105c15.971619 0 28.2052 -4.459503 36.700714 -13.378494c4.281769 -4.560089 6.422638 -9.9696045 6.422638 -16.228546c0 -6.281311 -2.2088318 -11.634933 -6.626526 -16.060898c-1.9029846 -1.9447479 -4.3836975 -3.755371 -7.4420776 -5.4318695c-3.0584106 -1.6764984 -5.9695435 -3.028885 -8.733429 -4.057144c-2.741211 -1.0506134 -5.369171 -1.9559174 -7.88385 -2.7159271c-2.514679 -0.78237915 -5.2672424 -1.5535736 -8.25766 -2.3135834c-2.9904175 -0.7823639 -5.539093 -1.4417877 -7.645996 -1.9782715c-13.320984 -3.6883087 -19.981506 -8.68428 -19.981506 -14.98793c0 -4.0236053 2.1408691 -7.287201 6.422638 -9.7907715c4.2817383 -2.5259323 9.311096 -3.7889023 15.088074 -3.7889023c13.932678 0 20.899017 6.471306 20.899017 19.413902c0 2.0788574 0.48709106 3.4088898 1.4612427 3.9900818c0.9968262 0.5588379 3.00177 0.8382416 6.0148315 0.8382416c3.0357666 0 5.9582214 -1.0394287 8.767395 -3.1182861c2.8318481 -2.0788727 4.247772 -4.861862 4.247772 -8.348984c0 -3.4871368 -1.3819275 -6.8401337 -4.145813 -10.059021c-2.741211 -3.2188873 -6.3206787 -5.7336426 -10.738373 -7.5442657c-8.971283 -3.688301 -18.588226 -5.5324554 -28.85083 -5.5324554z" fill-rule="evenodd"/></g></svg>